<?xml version="1.0" encoding="UTF-8"?>
<svg version="1.1" xmlns="http://www.w3.org/2000/svg" width="1584" height="297">
<path d="M0 0 C522.72 0 1045.44 0 1584 0 C1584 98.01 1584 196.02 1584 297 C1061.28 297 538.56 297 0 297 C0 198.99 0 100.98 0 0 Z " fill="#FFE5B4" transform="translate(0,0)"/>
<path d="M0 0 C522.72 0 1045.44 0 1584 0 C1584 16.64679081 1584 16.64679081 1577.53515625 23.48046875 C1576.69855469 24.31191406 1575.86195312 25.14335937 1575 26 C1573.46993785 27.72100587 1571.94835664 29.44960944 1570.4375 31.1875 C1569.29392608 32.46036688 1568.14900047 33.73202945 1567 35 C1566 33 1566 33 1566 29 C1559.4 26.69 1552.8 24.38 1546 22 C1545.67 24.64 1545.34 27.28 1545 30 C1544.67 30.99 1544.34 31.98 1544 33 C1544.78503906 33.18175781 1545.57007813 33.36351562 1546.37890625 33.55078125 C1552.19425571 34.94218388 1557.60004859 36.42275046 1563 39 C1559.33132087 43.49413193 1555.58036689 47.40114447 1551.15625 51.1484375 C1549.732063 52.37138069 1548.33495911 53.62667315 1546.96875 54.9140625 C1509.95028026 89.71663792 1460.37541925 113.43218917 1411 124 C1409.75500732 124.27239502 1409.75500732 124.27239502 1408.48486328 124.55029297 C1379.87299412 130.77271285 1350.98330382 133.11368111 1321.74185181 133.40640259 C1319.87746852 133.4270767 1318.01315558 133.45565852 1316.14901733 133.49227905 C1313.52461248 133.53986314 1310.90213231 133.5539445 1308.27734375 133.55859375 C1307.48487244 133.5780304 1306.69240112 133.59746704 1305.87591553 133.61749268 C1303.65991211 133.59936523 1303.65991211 133.59936523 1300 133 C1297.98266602 130.46508789 1297.98266602 130.46508789 1297 128 C1292.91907936 129.27831588 1292.91907936 129.27831588 1289.04370117 131.05639648 C1282.32893347 134.15669241 1272.23039777 131.42429163 1265.1875 130.4375 C1263.92832764 130.26331543 1262.66915527 130.08913086 1261.37182617 129.90966797 C1251.44486477 128.49621505 1241.63814989 126.61211299 1231.8125 124.625 C1218.2823443 121.89244856 1204.72837629 119.63147325 1191.0625 117.6875 C1190.20878815 117.56457581 1189.35507629 117.44165161 1188.47549438 117.31500244 C1172.03029692 114.9613443 1155.48826111 113.01182016 1138.875 112.4375 C1130.3876843 112.1292281 1130.3876843 112.1292281 1127 111 C1127.33 109.35 1127.66 107.7 1128 106 C1127.35675781 105.89816406 1126.71351562 105.79632813 1126.05078125 105.69140625 C1121.97027923 104.76663178 1118.11850085 103.35766879 1114.1875 101.9375 C1113.39923828 101.65583984 1112.61097656 101.37417969 1111.79882812 101.08398438 C1109.86477711 100.39241462 1107.93223512 99.69662722 1106 99 C1104.515 103.95 1104.515 103.95 1103 109 C1104.65 109.33 1106.3 109.66 1108 110 C1108 110.33 1108 110.66 1108 111 C1107.30664551 111.01981934 1106.61329102 111.03963867 1105.89892578 111.06005859 C1091.84540882 111.48057216 1077.93152189 112.06127772 1064 114 C1062.95150879 114.13462646 1062.95150879 114.13462646 1061.88183594 114.27197266 C1040.57582751 117.04826905 1020.74052451 124.07797072 1001.12988281 132.63671875 C991.45926812 136.84894281 981.73284381 140.93399856 972 145 C971.22720703 145.32516602 970.45441406 145.65033203 969.65820312 145.98535156 C938.53725925 158.94510613 904.26374652 160.63564487 871 160 C870.07606445 159.98598145 869.15212891 159.97196289 868.20019531 159.95751953 C837.44685757 159.3970021 804.08189993 156.34922482 775 146 C775.33 142.7 775.66 139.4 776 136 C774.3603125 135.814375 774.3603125 135.814375 772.6875 135.625 C767.41859235 134.97229869 762.21479126 133.98735937 757 133 C756.34 134.32 755.68 135.64 755 137 C747.96354423 135.11380178 740.96640656 133.13072305 734 131 C734.99 128.36 735.98 125.72 737 123 C736.28070312 122.73316406 735.56140625 122.46632813 734.8203125 122.19140625 C731.97518445 120.98951698 729.4948465 119.56789377 726.875 117.9375 C724.19748052 116.27320598 722.00027598 115.00009199 719 114 C717.35 116.97 715.7 119.94 714 123 C714.70125 123.2475 715.4025 123.495 716.125 123.75 C719.38087894 125.16559954 722.12368559 126.92637798 725 129 C725 129.33 725 129.66 725 130 C723.50557373 130.02187378 723.50557373 130.02187378 721.98095703 130.04418945 C696.27688428 130.03187473 696.27688428 130.03187473 671 134 C670.195625 134.20302734 669.39125 134.40605469 668.5625 134.61523438 C658.06611787 137.34085741 647.78680008 140.69753656 637.54296875 144.2421875 C636.71272186 144.52903412 635.88247498 144.81588074 635.02706909 145.11141968 C630.88248919 146.54645632 626.74365071 147.99555539 622.61230469 149.46826172 C613.12100145 152.81759106 603.93154065 155.25628317 594 157 C592.32623181 157.38284151 590.65298891 157.76799251 588.98046875 158.15625 C570.94838978 161.72916967 551.72739156 160.92936696 536.046875 151.16015625 C528.79391398 146.10829436 522.53281408 139.90393497 516.15258789 133.81738281 C498.93965243 117.40635851 479.91155952 106.53990363 455.5625 106.6875 C454.60456543 106.69168945 453.64663086 106.69587891 452.65966797 106.70019531 C438.78963276 106.9163756 425.62137582 109.85010833 412.25976562 113.41113281 C409.76816561 114.0604132 407.26826264 114.66813577 404.765625 115.2734375 C366.48332373 124.66758134 332.91164991 141.2352875 300.76733398 163.77001953 C296.11161275 167.01018027 296.11161275 167.01018027 293.64453125 166.78515625 C290.78954186 165.93751538 288.32850607 164.81082316 285.6875 163.4375 C284.80449219 162.98246094 283.92148437 162.52742187 283.01171875 162.05859375 C282.01591797 161.53458984 282.01591797 161.53458984 281 161 C279.515 165.455 279.515 165.455 278 170 C279.65 171.32 281.3 172.64 283 174 C255.89795754 188.9337785 224.93734968 187.53486084 195 187 C195 181.39 195 175.78 195 170 C191.37 169.67 187.74 169.34 184 169 C184 174.94 184 180.88 184 187 C135.09840045 187.60580096 82.96296555 173.51518111 47 139 C46.10667969 138.16984375 45.21335938 137.3396875 44.29296875 136.484375 C15.45663608 108.89828892 4.79881317 71.39050535 0 33 C0 22.11 0 11.22 0 0 Z " fill="#FFBD3E" transform="translate(0,0)"/>
<path d="M0 0 C2.64 1.98 5.28 3.96 8 6 C7.67 7.32 7.34 8.64 7 10 C9.31 10.66 11.62 11.32 14 12 C13.34 15.63 12.68 19.26 12 23 C7.62065881 22.48041715 3.31196609 21.94324258 -1 21 C-1 21.66 -1 22.32 -1 23 C-4.48670834 21.8905928 -7.77484237 20.73662334 -11 19 C-10.69096017 17.66082739 -10.34976758 16.32911682 -10 15 C-9.62875 13.5459375 -9.62875 13.5459375 -9.25 12.0625 C-7.77213633 8.44173401 -5.84892285 6.64046508 -3 4 C-2.01 2.68 -1.02 1.36 0 0 Z " fill="#FFEED0" transform="translate(203,129)"/>
<path d="M0 0 C1.33891561 3.28942366 2.67017703 6.58189109 4 9.875 C4.3815625 10.81214844 4.763125 11.74929687 5.15625 12.71484375 C5.5171875 13.61074219 5.878125 14.50664062 6.25 15.4296875 C6.75273437 16.67081299 6.75273437 16.67081299 7.265625 17.93701172 C8 20 8 20 8 22 C6.73581754 22.69965443 5.46334598 23.38434763 4.1875 24.0625 C3.47980469 24.44535156 2.77210938 24.82820313 2.04296875 25.22265625 C0 26 0 26 -3 25 C-4.53515625 22.12109375 -4.53515625 22.12109375 -6.0625 18.4375 C-6.32562988 17.80505371 -6.58875977 17.17260742 -6.85986328 16.52099609 C-8.67609803 12.06088978 -10.05712469 7.71437653 -11 3 C-9.73160474 2.49384702 -8.46016898 1.99530901 -7.1875 1.5 C-6.12595703 1.08234375 -6.12595703 1.08234375 -5.04296875 0.65625 C-3 0 -3 0 0 0 Z " fill="#FFEFD2" transform="translate(201,213)"/>
<path d="M0 0 C3.38731138 1.48579795 5.78511129 3.44110404 8.5 5.9375 C11.24319741 8.45053188 13.98692252 10.81551882 17 13 C15.8905928 16.48670834 14.73662334 19.77484237 13 23 C4.77960932 20.12286326 -1.83744964 13.88340048 -7 7 C-4.78071806 4.09197539 -3.07030857 2.04687238 0 0 Z " fill="#FFEFD2" transform="translate(220,254)"/>
<path d="M0 0 C7.92 0 15.84 0 24 0 C24 3.63 24 7.26 24 11 C16.08 11 8.16 11 0 11 C0 7.37 0 3.74 0 0 Z " fill="#FFEECF" transform="translate(103,134)"/>
<path d="M0 0 C7.92 0 15.84 0 24 0 C24 3.63 24 7.26 24 11 C16.08 11 8.16 11 0 11 C0 7.37 0 3.74 0 0 Z " fill="#FFEECF" transform="translate(56,134)"/>
<path d="M0 0 C7.92 0 15.84 0 24 0 C24 3.63 24 7.26 24 11 C16.08 11 8.16 11 0 11 C0 7.37 0 3.74 0 0 Z " fill="#FFEFD3" transform="translate(9,134)"/>
<path d="M0 0 C4.66154042 1.49835228 5.86610751 4.88463591 8 9 C-7.82905865 18.72096541 -7.82905865 18.72096541 -16 18 C-17.58272601 16.41727399 -17.34735747 14.61965997 -17.5625 12.4375 C-17.64628906 11.61121094 -17.73007812 10.78492188 -17.81640625 9.93359375 C-17.87699219 9.29550781 -17.93757813 8.65742188 -18 8 C-16.95199219 7.59007812 -15.90398437 7.18015625 -14.82421875 6.7578125 C-13.44523991 6.21372561 -12.06633764 5.66944462 -10.6875 5.125 C-9.65206055 4.72087891 -9.65206055 4.72087891 -8.59570312 4.30859375 C-5.48986901 3.07826333 -2.79017305 1.86011537 0 0 Z " fill="#FFEFD2" transform="translate(275,263)"/>
<path d="M0 0 C3.59943736 1.33693388 6.73125918 2.99480605 10 5 C6.07268222 12.12570158 1.60767445 18.10767202 -4 24 C-6.93446886 22.58208437 -9.43332409 21.01667393 -12 19 C-11.48040157 14.59915877 -9.95955815 12.2963995 -7.125 8.9375 C-6.07699219 7.68259766 -6.07699219 7.68259766 -5.0078125 6.40234375 C-4.34523438 5.60957031 -3.68265625 4.81679687 -3 4 C-1.99033363 2.6739715 -0.98654733 1.34331759 0 0 Z " fill="#FFEFD2" transform="translate(306,230)"/>
<path d="M0 0 C7.60837466 2.07042054 14.7728592 4.85830477 22 8 C21.01 11.3 20.02 14.6 19 18 C14.46005767 17.39559013 10.56085691 16.19736908 6.3125 14.5 C1.68818862 12.66249998 1.68818862 12.66249998 -3 11 C-1.125 3.375 -1.125 3.375 0 0 Z " fill="#FFEFD2" transform="translate(1149,115)"/>
<path d="M0 0 C7.88416983 1.35258896 15.39353334 3.54399352 23 6 C22.28159908 9.79911118 21.27444595 13.34658827 20 17 C14.73721791 15.94744358 9.62512198 14.66256799 4.5 13.0625 C3.4790625 12.74410156 2.458125 12.42570312 1.40625 12.09765625 C0.6121875 11.73542969 -0.181875 11.37320313 -1 11 C-2.41687119 6.74938644 -1.19320039 4.28148375 0 0 Z " fill="#FFEECE" transform="translate(1018,68)"/>
<path d="M0 0 C5.13756468 0.64016973 9.58790181 2.19700333 14.375 4.0625 C15.11105469 4.34416016 15.84710937 4.62582031 16.60546875 4.91601562 C18.4055736 5.60566618 20.2030621 6.30213932 22 7 C21.55123384 8.64846769 21.09069512 10.29373455 20.625 11.9375 C20.24214844 13.31228516 20.24214844 13.31228516 19.8515625 14.71484375 C19 17 19 17 17 18 C14.90910221 17.33325217 12.84984041 16.56587395 10.8125 15.75 C9.64976563 15.28722656 8.48703125 14.82445313 7.2890625 14.34765625 C3.84136355 12.93500051 0.40795315 11.50583976 -3 10 C-2.49287967 6.28111761 -1.88391785 3.26545761 0 0 Z " fill="#FFEED0" transform="translate(1106,99)"/>
<path d="M0 0 C7.44302097 2.39690506 14.71837152 5.15262441 22 8 C20.68 11.3 19.36 14.6 18 18 C10.73918325 16.13825211 3.89190398 13.94513033 -3 11 C-2.69217504 9.35328588 -2.37860766 7.70764424 -2.0625 6.0625 C-1.88847656 5.14597656 -1.71445313 4.22945313 -1.53515625 3.28515625 C-1 1 -1 1 0 0 Z " fill="#FFEECE" transform="translate(1063,82)"/>
<path d="M0 0 C7.0372771 1.88641839 14.02985 3.87865 21 6 C20.34 9.63 19.68 13.26 19 17 C11.47300372 15.67170654 4.06751929 13.98070006 -3 11 C-3.33 10.34 -3.66 9.68 -4 9 C-3.22265625 6.8359375 -3.22265625 6.8359375 -2.0625 4.375 C-1.68222656 3.55773437 -1.30195312 2.74046875 -0.91015625 1.8984375 C-0.60980469 1.27195313 -0.30945312 0.64546875 0 0 Z " fill="#FFEFD2" transform="translate(1193,131)"/>
<path d="M0 0 C8.01990481 0.52762532 15.23928097 1.90004073 23 4 C22.34 7.63 21.68 11.26 21 15 C13.50371945 13.73439419 6.31001769 12.08857648 -1 10 C-0.67 6.7 -0.34 3.4 0 0 Z " fill="#FFEECF" transform="translate(973,57)"/>
<path d="M0 0 C1.5078125 1.53125 1.5078125 1.53125 3.125 3.5 C3.66382813 4.1496875 4.20265625 4.799375 4.7578125 5.46875 C5.16773438 5.9740625 5.57765625 6.479375 6 7 C4.34136495 11.32504836 1.128959 14.09418825 -2.125 17.25 C-2.68832031 17.80429688 -3.25164062 18.35859375 -3.83203125 18.9296875 C-5.21686028 20.29104485 -6.60783204 21.64614859 -8 23 C-11.40212299 21.38617243 -14.10324519 19.41396234 -17 17 C-15.68692628 14.10147635 -14.27315362 12.01722783 -12.03125 9.765625 C-11.17466797 8.90517578 -11.17466797 8.90517578 -10.30078125 8.02734375 C-9.70652344 7.44082031 -9.11226562 6.85429688 -8.5 6.25 C-7.90574219 5.64800781 -7.31148437 5.04601562 -6.69921875 4.42578125 C-6.12816406 3.85730469 -5.55710937 3.28882812 -4.96875 2.703125 C-4.44732422 2.18395508 -3.92589844 1.66478516 -3.38867188 1.12988281 C-2 0 -2 0 0 0 Z " fill="#FFEDCD" transform="translate(1364,69)"/>
<path d="M0 0 C2.52090778 -0.0272367 5.04151457 -0.04695207 7.5625 -0.0625 C8.61920898 -0.07506836 8.61920898 -0.07506836 9.69726562 -0.08789062 C14.24024798 -0.10882603 18.51784892 0.25199318 23 1 C23.07622858 4.96388638 22.9681648 8.1273408 22 12 C14.74 11.67 7.48 11.34 0 11 C0 7.37 0 3.74 0 0 Z " fill="#FFEECF" transform="translate(150,134)"/>
<path d="M0 0 C3 1 3 1 4.16796875 2.84765625 C4.50441406 3.57855469 4.84085938 4.30945313 5.1875 5.0625 C5.53167969 5.79597656 5.87585937 6.52945313 6.23046875 7.28515625 C6.48441406 7.85105469 6.73835938 8.41695312 7 9 C-7.21359223 18 -7.21359223 18 -15 18 C-15.99 14.7 -16.98 11.4 -18 8 C-16.86820313 7.50628906 -15.73640625 7.01257813 -14.5703125 6.50390625 C-13.08852958 5.85679852 -11.6067594 5.20966159 -10.125 4.5625 C-9.37863281 4.23701172 -8.63226562 3.91152344 -7.86328125 3.57617188 C-6.79013672 3.10727539 -6.79013672 3.10727539 -5.6953125 2.62890625 C-5.03547363 2.34088135 -4.37563477 2.05285645 -3.69580078 1.75610352 C-2.45008125 1.20067688 -1.21993963 0.60996982 0 0 Z " fill="#FFEFD1" transform="translate(1295,127)"/>
<path d="M0 0 C4.32504836 1.65863505 7.09418825 4.871041 10.25 8.125 C10.80429687 8.68832031 11.35859375 9.25164062 11.9296875 9.83203125 C13.29104485 11.21686028 14.64614859 12.60783204 16 14 C12 20.57142857 12 20.57142857 8 22 C2.77674023 17.53648711 -2.20922972 12.9255107 -7 8 C-5.31847927 4.25979502 -3.30960527 2.43865652 0 0 Z " fill="#FFEDCD" transform="translate(687,85)"/>
<path d="M0 0 C3.32406103 1.57124734 5.59694427 3.16782718 8 6 C8 6.99 8 7.98 8 9 C5.8046875 11.12109375 5.8046875 11.12109375 2.875 13.4375 C1.37646484 14.62472656 1.37646484 14.62472656 -0.15234375 15.8359375 C-3.03841119 18.0291904 -5.92319037 20.08738861 -9 22 C-10.98 19.69 -12.96 17.38 -15 15 C-13.28632943 11.57265885 -12.68930093 10.45001253 -9.9609375 8.203125 C-9.38085938 7.71972656 -8.80078125 7.23632812 -8.203125 6.73828125 C-7.59984375 6.24714844 -6.9965625 5.75601563 -6.375 5.25 C-5.76398438 4.74339844 -5.15296875 4.23679687 -4.5234375 3.71484375 C-3.02070947 2.4703971 -1.51102533 1.23435872 0 0 Z " fill="#FFEECF" transform="translate(1330,101)"/>
<path d="M0 0 C3.7952131 1.49097658 5.61042731 3.75700849 8 7 C6.46679261 10.78133733 4.16776728 12.89443552 1.125 15.5625 C0.26132813 16.32691406 -0.60234375 17.09132813 -1.4921875 17.87890625 C-3.61198107 19.67181576 -5.75629307 21.36679007 -8 23 C-10.31 20.69 -12.62 18.38 -15 16 C-12.89498827 11.78997654 -10.38652066 9.35812643 -6.9375 6.3125 C-6.38255859 5.81427734 -5.82761719 5.31605469 -5.25585938 4.80273438 C-3.84016705 3.53188755 -2.42039183 2.26559214 -1 1 C-0.67 0.67 -0.34 0.34 0 0 Z " fill="#FFEECF" transform="translate(1394,38)"/>
<path d="M0 0 C0.99 3.3 1.98 6.6 3 10 C0.77208002 11.12752649 -1.45725887 12.25208139 -3.6875 13.375 C-4.31333984 13.69210938 -4.93917969 14.00921875 -5.58398438 14.3359375 C-9.00364701 16.05472081 -12.42007074 17.64469217 -16 19 C-17.65 16.69 -19.3 14.38 -21 12 C-19.49533581 7.76637964 -16.88667612 6.44940326 -13.0625 4.3125 C-12.00160156 3.71050781 -10.94070313 3.10851562 -9.84765625 2.48828125 C-6.19117552 0.57728103 -4.18020087 0 0 0 Z " fill="#FFEECE" transform="translate(1435,13)"/>
<path d="M0 0 C6.27762202 3.63441275 10.99111424 8.81293254 16 14 C14.42003387 17.32072528 12.92110579 19.68029835 10 22 C6.68506827 21.63824152 5.0478981 20.40933504 2.765625 18.05859375 C2.19199219 17.47529297 1.61835937 16.89199219 1.02734375 16.29101562 C0.44082031 15.67935547 -0.14570312 15.06769531 -0.75 14.4375 C-1.35199219 13.82197266 -1.95398438 13.20644531 -2.57421875 12.57226562 C-4.05634381 11.05485187 -5.5290967 9.52829404 -7 8 C-6.02133662 6.85373678 -5.04205413 5.70800212 -4.0625 4.5625 C-3.51722656 3.92441406 -2.97195313 3.28632812 -2.41015625 2.62890625 C-1.63204305 1.73008851 -0.84063472 0.84063472 0 0 Z " fill="#FFEDCD" transform="translate(656,54)"/>
<path d="M0 0 C3.63 0.33 7.26 0.66 11 1 C11 7.93 11 14.86 11 22 C7 23 7 23 0 23 C0 15.41 0 7.82 0 0 Z " fill="#FFEFD1" transform="translate(184,169)"/>
<path d="M0 0 C3.47921735 -0.02683201 6.95823039 -0.0467567 10.4375 -0.0625 C11.92733398 -0.07506836 11.92733398 -0.07506836 13.44726562 -0.08789062 C14.39150391 -0.09111328 15.33574219 -0.09433594 16.30859375 -0.09765625 C17.62041626 -0.10551147 17.62041626 -0.10551147 18.95874023 -0.11352539 C21 0 21 0 22 1 C22.33 4.3 22.66 7.6 23 11 C15.41 11 7.82 11 0 11 C0 7.37 0 3.74 0 0 Z " fill="#FFEFD3" transform="translate(1235,141)"/>
<path d="M0 0 C4.37008875 0.87401775 8.47403094 2.03573483 12.6875 3.4375 C13.70166992 3.76331055 13.70166992 3.76331055 14.73632812 4.09570312 C19.76039342 5.76039342 19.76039342 5.76039342 22 8 C21.01 10.97 20.02 13.94 19 17 C11.78069368 15.55613874 4.94889267 13.42211826 -2 11 C-1.34 7.37 -0.68 3.74 0 0 Z " fill="#FFEECF" transform="translate(1546,22)"/>
<path d="M0 0 C7.49612516 1.52463563 14.71359134 3.68006154 22 6 C21.01 9.3 20.02 12.6 19 16 C11.64987044 15.42351925 4.98575424 13.28953836 -2 11 C-1.34 7.37 -0.68 3.74 0 0 Z " fill="#FFEDCE" transform="translate(238,146)"/>
<path d="M0 0 C4.35675772 1.293513 7.87800365 2.96690613 11.6875 5.4375 C12.61949219 6.03433594 13.55148437 6.63117187 14.51171875 7.24609375 C17 9 17 9 20 12 C18.02 14.64 16.04 17.28 14 20 C9.72813475 18.47146065 6.00673137 16.28490519 2.1875 13.875 C1.2912793 13.31619141 1.2912793 13.31619141 0.37695312 12.74609375 C-1.08426251 11.8342952 -2.54244585 10.91764024 -4 10 C-3.52449439 8.51965236 -3.04448784 7.04074979 -2.5625 5.5625 C-2.29566406 4.73878906 -2.02882813 3.91507813 -1.75390625 3.06640625 C-1 1 -1 1 0 0 Z " fill="#FFEECE" transform="translate(619,28)"/>
<path d="M0 0 C7.26 0 14.52 0 22 0 C22 3.63 22 7.26 22 11 C14.74 11 7.48 11 0 11 C0 7.37 0 3.74 0 0 Z " fill="#FFEECF" transform="translate(1458,8)"/>
<path d="M0 0 C6.9064141 3.34961084 13.57269512 6.79753142 20 11 C17.03 15.455 17.03 15.455 14 20 C10.57933107 18.63173243 7.61178419 17.33457865 4.4375 15.5625 C3.69371094 15.15128906 2.94992187 14.74007812 2.18359375 14.31640625 C0.00453585 13.00273449 -1.99277861 11.5611722 -4 10 C-3.52449439 8.51965236 -3.04448784 7.04074979 -2.5625 5.5625 C-2.29566406 4.73878906 -2.02882813 3.91507813 -1.75390625 3.06640625 C-1 1 -1 1 0 0 Z " fill="#FFEED0" transform="translate(281,160)"/>
<path d="M0 0 C1.04702186 3.7264085 1.07442057 7.13013042 1 11 C-6.01805857 12.10087193 -12.90565767 12.09733092 -20 12 C-20.33 8.37 -20.66 4.74 -21 1 C-13.98194143 -0.10087193 -7.09434233 -0.09733092 0 0 Z " fill="#FFECCA" transform="translate(392,48)"/>
<path d="M0 0 C7.79520143 0.38842069 14.59971165 1.49696129 22 4 C21.34 7.3 20.68 10.6 20 14 C12.66595467 13.46854744 6.03475605 12.12647569 -1 10 C-1.125 2.25 -1.125 2.25 0 0 Z " fill="#FFEED0" transform="translate(1503,12)"/>
<path d="M0 0 C4.30064209 7.2780097 4.09930106 13.75801219 4 22 C0.37 22 -3.26 22 -7 22 C-7.103125 20.329375 -7.20625 18.65875 -7.3125 16.9375 C-7.74591369 12.00423246 -8.75653045 8.38939694 -11 4 C-9.73760288 3.13341385 -8.46472499 2.28207941 -7.1875 1.4375 C-6.47980469 0.96183594 -5.77210938 0.48617187 -5.04296875 -0.00390625 C-3 -1 -3 -1 0 0 Z " fill="#FFEFD2" transform="translate(319,190)"/>
<path d="M0 0 C3.85691628 1.85054064 7.54423295 3.99343074 11.25 6.125 C11.8996875 6.49753906 12.549375 6.87007813 13.21875 7.25390625 C14.81306224 8.16829121 16.4066079 9.08401256 18 10 C17.31620454 13.95008059 16.21156817 16.63457018 14 20 C11.08312094 19.38903209 8.86584666 18.48685442 6.328125 16.93359375 C5.66425781 16.53076172 5.00039063 16.12792969 4.31640625 15.71289062 C3.63449219 15.29201172 2.95257812 14.87113281 2.25 14.4375 C1.55261719 14.01275391 0.85523438 13.58800781 0.13671875 13.15039062 C-1.57835717 12.10489914 -3.28956473 11.05306649 -5 10 C-4.17707746 6.01532244 -2.33946269 3.32052768 0 0 Z " fill="#FFEED0" transform="translate(719,113)"/>
<path d="M0 0 C2.90802461 2.21928194 4.95312762 3.92969143 7 7 C6.68572045 10.67170503 4.68156146 13.1416315 2.5625 16.0625 C1.94503906 16.91972656 1.32757812 17.77695313 0.69140625 18.66015625 C0.13324219 19.43230469 -0.42492187 20.20445313 -1 21 C-1.66 21.99 -2.32 22.98 -3 24 C-6.45925163 22.7508258 -9.14693203 21.32472205 -12 19 C-10.2778458 11.72868226 -5.40801389 5.07724851 0 0 Z " fill="#FFEECE" transform="translate(901,65)"/>
<path d="M0 0 C7.6097186 0.55953813 14.64383573 1.99032626 22 4 C21.69201674 5.48011371 21.378482 6.95907325 21.0625 8.4375 C20.80146484 9.67306641 20.80146484 9.67306641 20.53515625 10.93359375 C20 13 20 13 19 14 C12.24038239 13.45486955 5.65912762 12.26439132 -1 11 C-0.67 7.37 -0.34 3.74 0 0 Z " fill="#FFEECF" transform="translate(576,15)"/>
<path d="M0 0 C7.59 0 15.18 0 23 0 C23 3.3 23 6.6 23 10 C12.11 10.495 12.11 10.495 1 11 C0.67 7.37 0.34 3.74 0 0 Z " fill="#FFEFD2" transform="translate(926,54)"/>
<path d="M0 0 C0.66 3.63 1.32 7.26 2 11 C-0.76941606 11.83830973 -3.54035069 12.67082034 -6.3125 13.5 C-7.09818359 13.73847656 -7.88386719 13.97695313 -8.69335938 14.22265625 C-9.45068359 14.44824219 -10.20800781 14.67382812 -10.98828125 14.90625 C-11.68477783 15.11572266 -12.38127441 15.32519531 -13.09887695 15.54101562 C-15 16 -15 16 -18 16 C-19.19287411 12.12315913 -20 9.08378077 -20 5 C-17.41877492 4.15960114 -14.83536099 3.32749444 -12.25 2.5 C-11.15558594 2.14228516 -11.15558594 2.14228516 -10.0390625 1.77734375 C-9.33007812 1.55175781 -8.62109375 1.32617188 -7.890625 1.09375 C-7.24125977 0.88427734 -6.59189453 0.67480469 -5.92285156 0.45898438 C-4 0 -4 0 0 0 Z " fill="#FFEDCD" transform="translate(472,26)"/>
<path d="M0 0 C6.93 0 13.86 0 21 0 C21 3.63 21 7.26 21 11 C14.07 11 7.14 11 0 11 C0 7.37 0 3.74 0 0 Z " fill="#FFEED0" transform="translate(534,13)"/>
<path d="M0 0 C0.69965443 1.26418246 1.38434763 2.53665402 2.0625 3.8125 C2.44535156 4.52019531 2.82820313 5.22789063 3.22265625 5.95703125 C4 8 4 8 3 11 C1.32592773 12.07495117 1.32592773 12.07495117 -0.81640625 13.04296875 C-1.58017578 13.39423828 -2.34394531 13.74550781 -3.13085938 14.10742188 C-4.33452148 14.64206055 -4.33452148 14.64206055 -5.5625 15.1875 C-6.36880859 15.55552734 -7.17511719 15.92355469 -8.00585938 16.30273438 C-9.99986298 17.21124489 -11.99776958 18.10980336 -14 19 C-19 11.25 -19 11.25 -19 9 C-16.2118978 7.4933028 -13.41896042 5.99580196 -10.625 4.5 C-9.8309375 4.07074219 -9.036875 3.64148438 -8.21875 3.19921875 C-7.45820313 2.79316406 -6.69765625 2.38710937 -5.9140625 1.96875 C-4.8614624 1.40317383 -4.8614624 1.40317383 -3.78759766 0.82617188 C-2 0 -2 0 0 0 Z " fill="#FFEDCD" transform="translate(272,80)"/>
<path d="M0 0 C0.66 3.3 1.32 6.6 2 10 C-4.53792711 12.64031672 -11.14078075 14.38808348 -18 16 C-19.43668294 12.1389146 -20.11185208 9.103573 -20 5 C-17.41877492 4.15960114 -14.83536099 3.32749444 -12.25 2.5 C-11.15558594 2.14228516 -11.15558594 2.14228516 -10.0390625 1.77734375 C-9.33007812 1.55175781 -8.62109375 1.32617188 -7.890625 1.09375 C-7.24125977 0.88427734 -6.59189453 0.67480469 -5.92285156 0.45898438 C-4 0 -4 0 0 0 Z " fill="#FFEECF" transform="translate(432,38)"/>
<path d="M0 0 C2.475 4.455 2.475 4.455 5 9 C3.0873614 10.62995302 1.17019858 12.25399515 -0.75 13.875 C-1.55824219 14.56529297 -1.55824219 14.56529297 -2.3828125 15.26953125 C-5.20334737 17.64290815 -7.67163354 19.33581677 -11 21 C-12.98 18.69 -14.96 16.38 -17 14 C-14.96259258 9.92518517 -13.57604837 8.58884206 -10.0625 5.875 C-9.18722656 5.19179687 -8.31195313 4.50859375 -7.41015625 3.8046875 C-2.32900433 0 -2.32900433 0 0 0 Z " fill="#FFEECE" transform="translate(236,101)"/>
<path d="M0 0 C1.1577506 3.47325181 1.06866652 6.36067448 1 10 C-5.25461856 12.26616615 -11.45150687 13.83795007 -18 15 C-18.50367757 13.54293274 -19.00282556 12.08429904 -19.5 10.625 C-19.7784375 9.81289063 -20.056875 9.00078125 -20.34375 8.1640625 C-21 6 -21 6 -21 4 C-18.43923903 3.32595716 -15.87673417 2.660586 -13.3125 2 C-12.59126953 1.80921875 -11.87003906 1.6184375 -11.12695312 1.421875 C-7.33149039 0.45134572 -3.95384561 -0.24955239 0 0 Z " fill="#FFEDCD" transform="translate(351,54)"/>
<path d="M0 0 C0.33 3.63 0.66 7.26 1 11 C-5.6 12.32 -12.2 13.64 -19 15 C-19.66 11.37 -20.32 7.74 -21 4 C-18.25124318 3.32781493 -15.50119274 2.66207565 -12.75 2 C-11.97269531 1.80921875 -11.19539063 1.6184375 -10.39453125 1.421875 C-9.64042969 1.24140625 -8.88632812 1.0609375 -8.109375 0.875 C-7.41811523 0.70742188 -6.72685547 0.53984375 -6.01464844 0.3671875 C-4 0 -4 0 0 0 Z " fill="#FFEECE" transform="translate(513,16)"/>
<path d="M0 0 C6.40593286 1.10690752 12.71363856 2.33945169 19 4 C18.67 7.63 18.34 11.26 18 15 C13.32130768 14.45596601 8.7349187 13.59364078 4.125 12.625 C2.99320313 12.39039063 1.86140625 12.15578125 0.6953125 11.9140625 C-0.19414063 11.61242187 -1.08359375 11.31078125 -2 11 C-3.13643966 7.59068103 -2.86747764 6.99664544 -1.5625 3.8125 C-1.13130859 2.73935547 -1.13130859 2.73935547 -0.69140625 1.64453125 C-0.46324219 1.10183594 -0.23507812 0.55914062 0 0 Z " fill="#FFEFD1" transform="translate(757,132)"/>
<path d="M0 0 C1.046875 2.06640625 1.046875 2.06640625 1.75 4.5625 C1.99234375 5.38878906 2.2346875 6.21507813 2.484375 7.06640625 C2.65453125 7.70449219 2.8246875 8.34257813 3 9 C0.41958904 10.00816056 -2.16386944 11.0067111 -4.75 12 C-5.47960937 12.28617188 -6.20921875 12.57234375 -6.9609375 12.8671875 C-7.66992188 13.13789062 -8.37890625 13.40859375 -9.109375 13.6875 C-10.08342285 14.06455078 -10.08342285 14.06455078 -11.07714844 14.44921875 C-13 15 -13 15 -17 15 C-17.99 11.7 -18.98 8.4 -20 5 C-17.42138975 3.96555751 -14.83825365 2.94727716 -12.25 1.9375 C-11.15558594 1.49567383 -11.15558594 1.49567383 -10.0390625 1.04492188 C-8.97558594 0.6340332 -8.97558594 0.6340332 -7.890625 0.21484375 C-7.24125977 -0.04176025 -6.59189453 -0.29836426 -5.92285156 -0.56274414 C-3.5878406 -1.09372492 -2.22268791 -0.86001108 0 0 Z " fill="#FFEECF" transform="translate(311,66)"/>
<path d="M0 0 C3.76687864 3.76687864 4.67652988 5.14727622 6 10 C3.39939496 11.34070318 0.79495084 12.67273354 -1.8125 14 C-2.55048828 14.3815625 -3.28847656 14.763125 -4.04882812 15.15625 C-4.76103516 15.5171875 -5.47324219 15.878125 -6.20703125 16.25 C-6.8616333 16.58515625 -7.51623535 16.9203125 -8.19067383 17.265625 C-10 18 -10 18 -13 18 C-13.99 14.7 -14.98 11.4 -16 8 C-10.72 5.36 -5.44 2.72 0 0 Z " fill="#FFEDCD" transform="translate(848,123)"/>
<path d="M0 0 C1.28317892 3.84953676 1.06643637 6.94738135 1 11 C-3.09003859 12.14982602 -7.03177051 12.11094256 -11.25 12.0625 C-11.99507812 12.05798828 -12.74015625 12.05347656 -13.5078125 12.04882812 C-15.3385764 12.03709246 -17.16929873 12.0191585 -19 12 C-19 8.37 -19 4.74 -19 1 C-16.58343806 0.83168225 -14.16676951 0.66528738 -11.75 0.5 C-11.06808594 0.45230469 -10.38617187 0.40460938 -9.68359375 0.35546875 C-6.44268497 0.13521281 -3.2506634 0 0 0 Z " fill="#FFEECE" transform="translate(814,136)"/>
<path d="M0 0 C3.43595166 1.52708963 6.11912454 3.59927045 9 6 C7.58884686 9.12270026 5.889376 11.49653681 3.625 14.0625 C3.03976562 14.73410156 2.45453125 15.40570313 1.8515625 16.09765625 C-0.01033964 18.01062322 -1.71574133 19.6121536 -4 21 C-8.03810445 19.65396518 -9.47295076 17.34663277 -12 14 C-12 13.34 -12 12.68 -12 12 C-10.390625 10.44921875 -10.390625 10.44921875 -8.25 8.6875 C-5.09829823 6.01637687 -2.44230671 3.35817172 0 0 Z " fill="#FFEDCD" transform="translate(876,99)"/>
</svg>
