<?xml version="1.0" encoding="UTF-8"?>
<svg version="1.1" xmlns="http://www.w3.org/2000/svg" width="1584" height="255">
<path d="M0 0 C522.72 0 1045.44 0 1584 0 C1584 84.15 1584 168.3 1584 255 C1061.28 255 538.56 255 0 255 C0 170.85 0 86.7 0 0 Z " fill="#FFE5B4" transform="translate(0,0)"/>
<path d="M0 0 C0.79397186 0.0015509 1.58794373 0.00310181 2.40597534 0.00469971 C45.34959799 0.1030245 45.34959799 0.1030245 61.4375 4.125 C61.4375 8.415 61.4375 12.705 61.4375 17.125 C65.0675 17.455 68.6975 17.785 72.4375 18.125 C72.4375 13.835 72.4375 9.545 72.4375 5.125 C78.15798959 5.01088157 83.56233734 5.40489452 89.21875 6.2265625 C90.05330719 6.34337875 90.88786438 6.46019501 91.74771118 6.58055115 C94.4784991 6.96455887 97.20801148 7.35687027 99.9375 7.75 C101.8552751 8.02292219 103.77308159 8.29562394 105.69091797 8.56811523 C110.63751354 9.27321698 115.58280287 9.98708092 120.52770996 10.70391846 C123.33878943 11.1107154 126.15027794 11.51455101 128.96191406 11.91748047 C148.89245838 14.77900938 168.78775378 17.66929825 188.4375 22.125 C189.41460938 22.34623535 190.39171875 22.5674707 191.3984375 22.79541016 C224.46423621 30.41235307 256.66719931 41.81281489 286.875 57.3125 C288.02871094 57.90417969 289.18242188 58.49585938 290.37109375 59.10546875 C293.82379754 61.37941507 295.86863853 63.90563651 298.4375 67.125 C300.16565367 68.63366554 301.93529845 70.0966308 303.75 71.5 C304.63300781 72.18835938 305.51601562 72.87671875 306.42578125 73.5859375 C307.08964844 74.09382813 307.75351563 74.60171875 308.4375 75.125 C309.7575 74.465 311.0775 73.805 312.4375 73.125 C315.4075 75.435 318.3775 77.745 321.4375 80.125 C321.4375 106.855 321.4375 133.585 321.4375 161.125 C-201.2825 161.125 -724.0025 161.125 -1262.5625 161.125 C-1262.5625 127.135 -1262.5625 93.145 -1262.5625 58.125 C-1256.49281714 59.47381841 -1250.79487841 60.93145006 -1244.9375 62.875 C-1234.76841781 66.16883629 -1224.46615335 68.83686328 -1214.10986328 71.46972656 C-1210.81248889 72.31792983 -1207.53257746 73.22126423 -1204.25 74.125 C-1197.39373714 75.96766863 -1190.48353314 77.54518832 -1183.5625 79.125 C-1168.68130529 82.52735619 -1168.68130529 82.52735619 -1161.875 84.3125 C-1160.26044922 84.73595703 -1160.26044922 84.73595703 -1158.61328125 85.16796875 C-1155.12782594 86.26135742 -1151.89690742 87.63605077 -1148.5625 89.125 C-1148.2325 88.465 -1147.9025 87.805 -1147.5625 87.125 C-1140.6325 88.115 -1133.7025 89.105 -1126.5625 90.125 C-1128.8125 96.875 -1128.8125 96.875 -1130.5625 100.125 C-1129.71429687 100.39054687 -1128.86609375 100.65609375 -1127.9921875 100.9296875 C-1124.43509054 102.16940466 -1121.09656601 103.64982616 -1117.6875 105.25 C-1115.95886719 106.05824219 -1115.95886719 106.05824219 -1114.1953125 106.8828125 C-1113.32648438 107.29273438 -1112.45765625 107.70265625 -1111.5625 108.125 C-1111.10230469 106.71347656 -1111.10230469 106.71347656 -1110.6328125 105.2734375 C-1109.76862999 102.73135319 -1108.83046465 100.47979149 -1107.5625 98.125 C-1108.449375 97.856875 -1109.33625 97.58875 -1110.25 97.3125 C-1113.34046215 96.20459847 -1115.85040452 94.95965282 -1118.5625 93.125 C-1118.5625 92.795 -1118.5625 92.465 -1118.5625 92.125 C-1111.36234146 92.54011848 -1104.23598891 93.26491447 -1097.08300781 94.16748047 C-1047.22237871 100.42908384 -992.28756874 102.70277141 -943.140625 90.01171875 C-939.78055989 89.17903886 -937.0036057 88.95294471 -933.5625 89.125 C-932.89095067 90.41413487 -932.22541141 91.70640204 -931.5625 93 C-931.19125 93.71929687 -930.82 94.43859375 -930.4375 95.1796875 C-929.5625 97.125 -929.5625 97.125 -929.5625 99.125 C-923.6225 96.155 -917.6825 93.185 -911.5625 90.125 C-911.8925 87.815 -912.2225 85.505 -912.5625 83.125 C-910.37676438 82.47322031 -908.1888177 81.82885326 -906 81.1875 C-904.78183594 80.82785156 -903.56367187 80.46820313 -902.30859375 80.09765625 C-898.69048381 79.15823041 -895.26396514 78.57756009 -891.5625 78.125 C-891.5625 79.445 -891.5625 80.765 -891.5625 82.125 C-890.52802734 81.72667969 -890.52802734 81.72667969 -889.47265625 81.3203125 C-883.53748913 79.08953638 -877.78359789 77.34882254 -871.5625 76.125 C-871.5625 75.465 -871.5625 74.805 -871.5625 74.125 C-865.11480986 73.30390307 -858.83572351 72.97742806 -852.33984375 72.9921875 C-850.92246666 72.99075241 -850.92246666 72.99075241 -849.47645569 72.98928833 C-847.49235975 72.98861213 -845.50826153 72.99042703 -843.52416992 72.99462891 C-840.50499462 72.99999113 -837.48596765 72.99466168 -834.46679688 72.98828125 C-832.52864551 72.98894201 -830.59049423 72.99022314 -828.65234375 72.9921875 C-827.75942123 72.99016327 -826.86649872 72.98813904 -825.94651794 72.98605347 C-820.72940404 73.00537211 -815.72620892 73.37145245 -810.5625 74.125 C-810.5625 75.445 -810.5625 76.765 -810.5625 78.125 C-809.49 78.351875 -808.4175 78.57875 -807.3125 78.8125 C-801.47866076 80.24997478 -796.0540709 82.72701404 -790.5625 85.125 C-790.43875 84.526875 -790.315 83.92875 -790.1875 83.3125 C-789.5625 81.125 -789.5625 81.125 -787.5625 78.125 C-782.45583882 77.71872419 -777.79262349 78.33959808 -772.765625 79.19311523 C-747.0832184 83.39357541 -717.81537871 83.73369998 -692.5625 77.125 C-691.72638184 76.91069336 -690.89026367 76.69638672 -690.02880859 76.47558594 C-672.31242796 71.81141522 -655.38520211 64.89439848 -638.6875 57.4375 C-629.75305949 53.45397861 -620.97669777 49.83636959 -611.5625 47.125 C-610.49370605 46.80474854 -610.49370605 46.80474854 -609.40332031 46.47802734 C-543.22250075 26.78102059 -476.82427709 52.02213323 -415.42631531 75.78701782 C-368.5742029 94.69370012 -368.5742029 94.69370012 -318.8840332 99.97851562 C-317.96968506 99.94435547 -317.05533691 99.91019531 -316.11328125 99.875 C-315.30544189 99.82859375 -314.49760254 99.7821875 -313.6652832 99.734375 C-311.5625 100.125 -311.5625 100.125 -309.77807617 102.015625 C-308.5625 104.125 -308.5625 104.125 -308.5625 106.125 C-307.51449219 105.6196875 -306.46648438 105.114375 -305.38671875 104.59375 C-304.00795688 103.93719673 -302.62904264 103.28096335 -301.25 102.625 C-300.55970703 102.29113281 -299.86941406 101.95726562 -299.15820312 101.61328125 C-293.90234375 99.125 -293.90234375 99.125 -290.5625 99.125 C-290.8925 97.475 -291.2225 95.825 -291.5625 94.125 C-288.94207157 92.45105999 -286.31544095 90.7871165 -283.6875 89.125 C-282.94113281 88.64804688 -282.19476562 88.17109375 -281.42578125 87.6796875 C-280.71035156 87.22851562 -279.99492188 86.77734375 -279.2578125 86.3125 C-278.59797363 85.89355469 -277.93813477 85.47460938 -277.25830078 85.04296875 C-275.5625 84.125 -275.5625 84.125 -273.5625 84.125 C-272.9025 86.105 -272.2425 88.085 -271.5625 90.125 C-265.37866764 88.88238593 -259.518032 87.20470959 -253.5625 85.125 C-254.2225 82.155 -254.8825 79.185 -255.5625 76.125 C-250.85788677 74.26367327 -246.6867304 73.8740504 -241.6875 74 C-240.99914062 74.00902344 -240.31078125 74.01804687 -239.6015625 74.02734375 C-237.92172162 74.05067487 -236.24206254 74.08653674 -234.5625 74.125 C-234.2325 74.785 -233.9025 75.445 -233.5625 76.125 C-232.61246094 75.89167969 -231.66242188 75.65835938 -230.68359375 75.41796875 C-225.55321469 74.68911178 -221.34755618 76.60587094 -216.625 78.4375 C-202.72831397 83.66315662 -191.07849179 86.81797025 -176.7890625 80.73046875 C-166.71058277 75.71563198 -158.70588109 68.78935867 -150.5625 61.125 C-149.19367414 59.93038834 -147.81923179 58.74216034 -146.4375 57.5625 C-143.61896361 55.12469332 -141.02183347 52.55909635 -138.4375 49.875 C-111.83953726 23.04892438 -76.32463128 8.29264186 -39.5625 2.375 C-38.84682861 2.25946777 -38.13115723 2.14393555 -37.39379883 2.02490234 C-24.96412717 0.1592484 -12.53769735 -0.04351606 0 0 Z " fill="#FFBD3E" transform="translate(1262.5625,93.875)"/>
<path d="M0 0 C2.78349856 1.0558098 4.00409146 2.00518252 5.875 4.375 C7 7 7 7 6.390625 8.8671875 C4.57502853 11.65178209 2.37776462 13.56810264 -0.125 15.75 C-1.03507812 16.54921875 -1.94515625 17.3484375 -2.8828125 18.171875 C-3.58148437 18.77515625 -4.28015625 19.3784375 -5 20 C-7.9719385 18.87548273 -10.33440687 17.77706209 -13 16 C-13.66 18.64 -14.32 21.28 -15 24 C-25.395 22.02 -25.395 22.02 -36 20 C-36 12.125 -36 12.125 -35 9 C-27.3299717 9.4302337 -20.34103058 10.74231361 -13 13 C-12.75121094 12.41476563 -12.50242187 11.82953125 -12.24609375 11.2265625 C-10.82558144 8.68834301 -9.2779547 7.24802874 -7.0625 5.375 C-6.37285156 4.78460938 -5.68320313 4.19421875 -4.97265625 3.5859375 C-3 2 -3 2 0 0 Z " fill="#FFEFD3" transform="translate(1295,30)"/>
<path d="M0 0 C0.99 3.3 1.98 6.6 3 10 C-0.10318002 11.48126722 -3.20748216 12.9600944 -6.3125 14.4375 C-7.63411133 15.06881836 -7.63411133 15.06881836 -8.98242188 15.71289062 C-9.82998047 16.11572266 -10.67753906 16.51855469 -11.55078125 16.93359375 C-12.33106689 17.30540771 -13.11135254 17.67722168 -13.9152832 18.06030273 C-16 19 -16 19 -19 20 C-19.83878455 18.71186658 -20.67086783 17.41936744 -21.5 16.125 C-21.9640625 15.40570313 -22.428125 14.68640625 -22.90625 13.9453125 C-24 12 -24 12 -24 10 C-20.94655708 8.31633005 -17.88092357 6.65618778 -14.8125 5 C-13.94818359 4.52304687 -13.08386719 4.04609375 -12.19335938 3.5546875 C-11.35224609 3.10351562 -10.51113281 2.65234375 -9.64453125 2.1875 C-8.48981323 1.55908203 -8.48981323 1.55908203 -7.31176758 0.91796875 C-5 0 -5 0 0 0 Z " fill="#FFEFD2" transform="translate(1188,42)"/>
<path d="M0 0 C2.87506421 -0.02712325 5.74986908 -0.04689851 8.625 -0.0625 C9.83736328 -0.07506836 9.83736328 -0.07506836 11.07421875 -0.08789062 C15.50341918 -0.1058955 19.63883424 0.10377338 24 1 C24 4.63 24 8.26 24 12 C16.41 12 8.82 12 1 12 C0.03929566 9.11788698 -0.10581883 7.30149956 -0.0625 4.3125 C-0.05347656 3.50425781 -0.04445313 2.69601563 -0.03515625 1.86328125 C-0.02355469 1.24839844 -0.01195312 0.63351563 0 0 Z " fill="#FFEFD1" transform="translate(1213,35)"/>
<path d="M0 0 C1.5078125 1.96875 1.5078125 1.96875 3.125 4.5 C3.66382813 5.3353125 4.20265625 6.170625 4.7578125 7.03125 C5.16773438 7.6809375 5.57765625 8.330625 6 9 C3.93821926 10.75085334 1.87560123 12.50070381 -0.1875 14.25 C-0.76564453 14.74113281 -1.34378906 15.23226562 -1.93945312 15.73828125 C-5.25231411 18.54579056 -8.5936212 21.30568908 -12 24 C-16.20626034 22.49776416 -17.73900021 19.71449966 -20 16 C-4.92604502 0 -4.92604502 0 0 0 Z " fill="#FFEFD2" transform="translate(1144,68)"/>
<path d="M0 0 C4.455 0.99 4.455 0.99 9 2 C9.83856598 5.3542639 10.08073332 7.22794099 9.87890625 10.546875 C9.83056641 11.39121094 9.78222656 12.23554687 9.73242188 13.10546875 C9.67634766 13.97816406 9.62027344 14.85085937 9.5625 15.75 C9.51029297 16.63816406 9.45808594 17.52632812 9.40429688 18.44140625 C9.27498612 20.6279336 9.13821873 22.81401768 9 25 C5.37 25.33 1.74 25.66 -2 26 C-2.05417835 22.79143783 -2.09375995 19.58379976 -2.125 16.375 C-2.15013672 15.01955078 -2.15013672 15.01955078 -2.17578125 13.63671875 C-2.21201643 8.67249848 -1.96444146 4.65588093 0 0 Z " fill="#FFEECE" transform="translate(1248,103)"/>
<path d="M0 0 C4.63268926 1.71581084 5.37625207 3.65150248 9 8 C3.72 12.95 -1.56 17.9 -7 23 C-9.31 21.02 -11.62 19.04 -14 17 C-14 13 -14 13 -12.82250977 11.46020508 C-12.28424561 10.98478271 -11.74598145 10.50936035 -11.19140625 10.01953125 C-10.60939453 9.49552734 -10.02738281 8.97152344 -9.42773438 8.43164062 C-8.81220703 7.89732422 -8.19667969 7.36300781 -7.5625 6.8125 C-6.95083984 6.26658203 -6.33917969 5.72066406 -5.70898438 5.15820312 C-4.1460697 3.76453225 -2.57372588 2.38145127 -1 1 C-0.67 0.67 -0.34 0.34 0 0 Z " fill="#FFEFD2" transform="translate(1104,102)"/>
<path d="M0 0 C0 7.92 0 15.84 0 24 C-7 24 -7 24 -11 23 C-11 16.07 -11 9.14 -11 2 C-3 0 -3 0 0 0 Z " fill="#FFEECE" transform="translate(1335,88)"/>
<path d="M0 0 C3.3 0.99 6.6 1.98 10 3 C8.45400947 10.72995263 4.37377257 15.58633383 -2 20 C-5.4375 21.375 -5.4375 21.375 -8 22 C-8.69699552 20.54618103 -9.38233866 19.08677047 -10.0625 17.625 C-10.44535156 16.81289062 -10.82820313 16.00078125 -11.22265625 15.1640625 C-11.47917969 14.44992188 -11.73570313 13.73578125 -12 13 C-10.60878255 10.2175651 -8.69835788 9.44789935 -6 8 C-5.34 8 -4.68 8 -4 8 C-3.566875 7.13375 -3.566875 7.13375 -3.125 6.25 C-2.08333333 4.16666667 -1.04166667 2.08333333 0 0 Z " fill="#FFEECF" transform="translate(1320,132)"/>
<path d="M0 0 C7.98192566 3.37958129 13.81945689 7.9641079 20 14 C17.66666667 16.33333333 15.33333333 18.66666667 13 21 C9.7369688 20.66037839 7.98616208 19.37684043 5.625 17.1875 C2.57070835 14.44985198 -0.53856904 12.19505378 -4 10 C-2.88786134 6.50470706 -1.68426809 3.25530808 0 0 Z " fill="#FFEFD2" transform="translate(1304,51)"/>
<path d="M0 0 C3.45925163 1.2491742 6.14693203 2.67527795 9 5 C8.31732131 9.16959138 6.14555429 12.58547515 4.0625 16.1875 C3.52206055 17.14946289 3.52206055 17.14946289 2.97070312 18.13085938 C0.25064767 22.87467617 0.25064767 22.87467617 -2 24 C-3.9453125 23.22265625 -3.9453125 23.22265625 -6.125 22.0625 C-6.84945313 21.68222656 -7.57390625 21.30195312 -8.3203125 20.91015625 C-8.87460938 20.60980469 -9.42890625 20.30945313 -10 20 C-9.42877205 15.32307114 -7.3633273 11.7329502 -5 7.75 C-4.44699219 6.79480469 -4.44699219 6.79480469 -3.8828125 5.8203125 C-1.17426658 1.17426658 -1.17426658 1.17426658 0 0 Z " fill="#FFEFD2" transform="translate(1268,60)"/>
<path d="M0 0 C1.25683594 0.47566406 1.25683594 0.47566406 2.5390625 0.9609375 C6.2340989 2.07028251 9.52889627 2.40729602 13.375 2.625 C14.62023438 2.69976562 15.86546875 2.77453125 17.1484375 2.8515625 C18.08945313 2.90054688 19.03046875 2.94953125 20 3 C20 6.3 20 9.6 20 13 C17.14524694 13.08156437 14.29286435 13.14076372 11.4375 13.1875 C10.23770508 13.22520508 10.23770508 13.22520508 9.01367188 13.26367188 C3.55205195 13.33054885 -0.12924103 12.4909519 -5 10 C-3.84414715 6.08788267 -2.64465038 3.1254959 0 0 Z " fill="#FFEFD1" transform="translate(1267,144)"/>
<path d="M0 0 C11.52164009 7.29840547 11.52164009 7.29840547 17 11 C16.43454163 14.95820859 15.19097652 17.6659053 13 21 C8.44435939 19.41467191 4.68524231 17.00996919 0.6875 14.375 C0.04232422 13.95476562 -0.60285156 13.53453125 -1.26757812 13.1015625 C-2.84760724 12.07161759 -4.42416047 11.03634372 -6 10 C-4.6302836 6.00499382 -2.74277578 3.19990508 0 0 Z " fill="#FFEECE" transform="translate(530,206)"/>
<path d="M0 0 C6.6 1.32 13.2 2.64 20 4 C19.67 7.63 19.34 11.26 19 15 C3.66070223 14.01671168 3.66070223 14.01671168 -2 11 C-2.9609375 9.33203125 -2.9609375 9.33203125 -3 7 C-2.01 4.69 -1.02 2.38 0 0 Z " fill="#FFEECF" transform="translate(566,227)"/>
<path d="M0 0 C1.046875 2.06640625 1.046875 2.06640625 1.75 4.5625 C1.99234375 5.38878906 2.2346875 6.21507812 2.484375 7.06640625 C2.65453125 7.70449219 2.8246875 8.34257812 3 9 C0.46270379 10.01250775 -2.07889488 11.01009573 -4.625 12 C-5.33785156 12.28617188 -6.05070313 12.57234375 -6.78515625 12.8671875 C-11.02007372 14.49899056 -14.38276475 15.34956986 -19 15 C-19.33 11.7 -19.66 8.4 -20 5 C-17.42138975 3.96555751 -14.83825365 2.94727716 -12.25 1.9375 C-11.15558594 1.49567383 -11.15558594 1.49567383 -10.0390625 1.04492188 C-8.97558594 0.6340332 -8.97558594 0.6340332 -7.890625 0.21484375 C-7.24125977 -0.04176025 -6.59189453 -0.29836426 -5.92285156 -0.56274414 C-3.5878406 -1.09372492 -2.22268791 -0.86001108 0 0 Z " fill="#FFEECE" transform="translate(626,225)"/>
<path d="M0 0 C0.99 3.3 1.98 6.6 3 10 C0.62854106 10.84479453 -1.74634124 11.67593283 -4.125 12.5 C-4.79015625 12.73847656 -5.4553125 12.97695312 -6.140625 13.22265625 C-10.23354055 14.62708806 -13.61131792 15.27343814 -18 15 C-19.43668294 11.1389146 -20.11185208 8.103573 -20 4 C-17.41806023 3.32749476 -14.83467929 2.66182099 -12.25 2 C-11.15558594 1.71382812 -11.15558594 1.71382812 -10.0390625 1.421875 C-6.55428354 0.53484036 -3.61876278 0 0 0 Z " fill="#FFEDCD" transform="translate(272,211)"/>
<path d="M0 0 C7.36988707 1.966369 14.13045202 4.69582578 21 8 C19.8905928 11.48670834 18.73662334 14.77484237 17 18 C12.85713983 17.31471486 9.15886187 16.02109557 5.25 14.5 C4.10015625 14.0565625 2.9503125 13.613125 1.765625 13.15625 C-1 12 -1 12 -2 11 C-1.62206515 7.09467317 -1.23947487 3.7184246 0 0 Z " fill="#FFEFD1" transform="translate(455,161)"/>
<path d="M0 0 C4.19680181 0.60102347 7.29912913 3.00351563 10.6875 5.375 C11.28111328 5.77460938 11.87472656 6.17421875 12.48632812 6.5859375 C16.87650998 9.62952994 16.87650998 9.62952994 18 13 C17.00390625 14.82421875 17.00390625 14.82421875 15.5625 16.6875 C15.08941406 17.31011719 14.61632812 17.93273437 14.12890625 18.57421875 C13.57009766 19.27998047 13.57009766 19.27998047 13 20 C8.56829827 18.48103632 4.96975924 16.07360191 1.1875 13.375 C0.2912793 12.74464844 0.2912793 12.74464844 -0.62304688 12.1015625 C-2.08520565 11.07220272 -3.54304899 10.0367177 -5 9 C-3.68753462 5.55905814 -2.33411133 2.86459118 0 0 Z " fill="#FFEECF" transform="translate(494,182)"/>
<path d="M0 0 C2 1 2 1 2.8515625 3.06640625 C3.10679687 3.89011719 3.36203125 4.71382812 3.625 5.5625 C4.01558594 6.80193359 4.01558594 6.80193359 4.4140625 8.06640625 C4.60742188 8.70449219 4.80078125 9.34257812 5 10 C2.2118978 11.5066972 -0.58103958 13.00419804 -3.375 14.5 C-4.1690625 14.92925781 -4.963125 15.35851562 -5.78125 15.80078125 C-6.92207031 16.40986328 -6.92207031 16.40986328 -8.0859375 17.03125 C-8.7876709 17.40830078 -9.4894043 17.78535156 -10.21240234 18.17382812 C-12 19 -12 19 -14 19 C-18 12.375 -18 12.375 -18 9 C-15.56401192 7.68462636 -13.1263175 6.37260857 -10.6875 5.0625 C-9.99720703 4.68931641 -9.30691406 4.31613281 -8.59570312 3.93164062 C-7.92861328 3.57392578 -7.26152344 3.21621094 -6.57421875 2.84765625 C-5.65515747 2.3527771 -5.65515747 2.3527771 -4.7175293 1.84790039 C-3 1 -3 1 0 0 Z " fill="#FFEFD1" transform="translate(347,174)"/>
<path d="M0 0 C1.31626692 3.61973402 2 6.09567131 2 10 C1.443125 10.18175781 0.88625 10.36351562 0.3125 10.55078125 C-3.62088784 11.84640731 -7.51672523 13.18148197 -11.375 14.6875 C-15 16 -15 16 -18 16 C-18.50615298 14.73160474 -19.00469099 13.46016898 -19.5 12.1875 C-19.7784375 11.47980469 -20.056875 10.77210938 -20.34375 10.04296875 C-21 8 -21 8 -21 5 C-18.2518872 4.15996552 -15.50180419 3.32777849 -12.75 2.5 C-11.97269531 2.26152344 -11.19539063 2.02304688 -10.39453125 1.77734375 C-9.64042969 1.55175781 -8.88632812 1.32617188 -8.109375 1.09375 C-7.07248535 0.77954102 -7.07248535 0.77954102 -6.01464844 0.45898438 C-4 0 -4 0 0 0 Z " fill="#FFEED1" transform="translate(389,160)"/>
<path d="M0 0 C6.6 0.66 13.2 1.32 20 2 C20 5.63 20 9.26 20 13 C2.5 13.25 2.5 13.25 -2 11 C-1.34 7.37 -0.68 3.74 0 0 Z " fill="#FFEECF" transform="translate(211,216)"/>
<path d="M0 0 C1.918125 0.433125 1.918125 0.433125 3.875 0.875 C8.9021791 1.99392698 13.94719344 3.00367195 19 4 C18.67 7.63 18.34 11.26 18 15 C10.56052488 14.52311057 4.04582186 13.43012077 -3 11 C-2.69078116 9.54096742 -2.37751201 8.08279278 -2.0625 6.625 C-1.88847656 5.81289062 -1.71445312 5.00078125 -1.53515625 4.1640625 C-1 2 -1 2 0 0 Z " fill="#FFEDCD" transform="translate(839,214)"/>
<path d="M0 0 C2.93170488 1.6515713 4.161882 4.07509977 5.7265625 6.97265625 C4.62537698 10.27621281 4.06604493 10.7301688 1.34765625 12.671875 C0.67412109 13.15849609 0.00058594 13.64511719 -0.69335938 14.14648438 C-1.40041016 14.64599609 -2.10746094 15.14550781 -2.8359375 15.66015625 C-3.54685547 16.17126953 -4.25777344 16.68238281 -4.99023438 17.20898438 C-6.74652848 18.47021571 -8.50937386 19.72231512 -10.2734375 20.97265625 C-12.60868532 18.71525002 -14.46048823 16.69208015 -16.2734375 13.97265625 C-15.92771203 10.47276627 -15.18552208 9.89062638 -12.47265625 7.359375 C-11.31039939 6.44891837 -10.13944614 5.54947602 -8.9609375 4.66015625 C-8.37892578 4.19287109 -7.79691406 3.72558594 -7.19726562 3.24414062 C-2.92017663 -0.0351224 -2.92017663 -0.0351224 0 0 Z " fill="#FFEECF" transform="translate(659.2734375,201.02734375)"/>
<path d="M0 0 C1.8125 2.875 1.8125 2.875 3 6 C1.86183377 9.4144987 1.54356988 9.54699469 -1.4921875 11.078125 C-2.54986328 11.61179688 -2.54986328 11.61179688 -3.62890625 12.15625 C-4.37011719 12.5171875 -5.11132812 12.878125 -5.875 13.25 C-6.60847656 13.62640625 -7.34195312 14.0028125 -8.09765625 14.390625 C-8.80535156 14.74125 -9.51304687 15.091875 -10.2421875 15.453125 C-10.8904248 15.77442383 -11.53866211 16.09572266 -12.20654297 16.42675781 C-14 17 -14 17 -17 16 C-20.10646651 11.00746453 -20.10646651 11.00746453 -19.78051758 7.9230957 C-18.40296572 4.52898373 -14.85905479 3.59081657 -11.6875 2.1875 C-11.01009766 1.86330078 -10.33269531 1.53910156 -9.63476562 1.20507812 C-3.71415686 -1.49768267 -3.71415686 -1.49768267 0 0 Z " fill="#FFEED0" transform="translate(311,195)"/>
<path d="M0 0 C2.81724453 1.28149672 5.62788457 2.57687233 8.4375 3.875 C9.23994141 4.23980469 10.04238281 4.60460937 10.86914062 4.98046875 C11.63291016 5.33496094 12.39667969 5.68945312 13.18359375 6.0546875 C13.89056396 6.37937012 14.59753418 6.70405273 15.32592773 7.03857422 C17 8 17 8 18 10 C16.55669869 13.13564285 14.74680549 16.01764916 13 19 C8.71 17.35 4.42 15.7 0 14 C0 13.34 0 12.68 0 12 C-2.475 11.01 -2.475 11.01 -5 10 C-3.66306612 6.40056264 -2.00519395 3.26874082 0 0 Z " fill="#FFEFD1" transform="translate(101,165)"/>
<path d="M0 0 C3.9374409 2.2242582 7.3373337 4.79850633 10.8125 7.6875 C11.78832031 8.49574219 12.76414062 9.30398437 13.76953125 10.13671875 C14.50558594 10.75160156 15.24164062 11.36648437 16 12 C14.38617243 15.40212299 12.41396234 18.10324519 10 21 C6.29299535 19.37983645 3.42663642 17.06115893 0.3125 14.5 C-0.66074219 13.7059375 -1.63398437 12.911875 -2.63671875 12.09375 C-5 10 -5 10 -6 8 C-4.02 5.36 -2.04 2.72 0 0 Z " fill="#FFEFD2" transform="translate(1500,97)"/>
<path d="M0 0 C4.42679007 1.47559669 4.91432696 3.90057368 7 8 C7 8.66 7 9.32 7 10 C5.56298828 11.14501953 5.56298828 11.14501953 3.5703125 12.3828125 C2.85746094 12.82753906 2.14460937 13.27226562 1.41015625 13.73046875 C0.27900391 14.42076172 0.27900391 14.42076172 -0.875 15.125 C-1.62136719 15.59292969 -2.36773438 16.06085938 -3.13671875 16.54296875 C-8.73045736 20 -8.73045736 20 -11 20 C-11.69965443 18.73581754 -12.38434763 17.46334598 -13.0625 16.1875 C-13.44535156 15.47980469 -13.82820312 14.77210938 -14.22265625 14.04296875 C-15 12 -15 12 -14 9 C-11.73540545 7.29721024 -9.51125871 5.75986828 -7.125 4.25 C-6.48691406 3.82589844 -5.84882812 3.40179688 -5.19140625 2.96484375 C-3.51363422 1.88952848 -1.75949102 0.93563522 0 0 Z " fill="#FFEDCD" transform="translate(930,201)"/>
<path d="M0 0 C6.95776959 1.36874156 13.38603107 3.4533129 20 6 C19.49287967 9.71888239 18.88391785 12.73454239 17 16 C10.3227105 15.39297368 4.29872004 13.22368606 -2 11 C-1.49800802 7.27091669 -0.95792977 3.63852314 0 0 Z " fill="#FFEDCE" transform="translate(761,186)"/>
<path d="M0 0 C4.35970831 1.34849837 8.31341438 3.04907846 12.375 5.125 C13.43460938 5.66382813 14.49421875 6.20265625 15.5859375 6.7578125 C16.38257813 7.16773438 17.17921875 7.57765625 18 8 C16.86546069 11.47988948 15.73783087 14.77259982 14 18 C9.44684052 17.38188466 5.71540233 15.53234107 1.6875 13.4375 C0.71973633 12.9434668 0.71973633 12.9434668 -0.26757812 12.43945312 C-1.84785228 11.63175745 -3.42432105 10.81662387 -5 10 C-3.125 4.25 -3.125 4.25 -2 2 C-1.34 2 -0.68 2 0 2 C0 1.34 0 0.68 0 0 Z " fill="#FFEDCC" transform="translate(137,184)"/>
<path d="M0 0 C3.0750708 0.58753729 4.87901137 1.45473989 7.234375 3.50390625 C8.09482422 4.24350586 8.09482422 4.24350586 8.97265625 4.99804688 C9.55917969 5.51431641 10.14570312 6.03058594 10.75 6.5625 C11.35199219 7.08263672 11.95398437 7.60277344 12.57421875 8.13867188 C14.05488159 9.41956274 15.52817542 10.70896312 17 12 C16.07456291 13.34173403 15.13422595 14.67320159 14.1875 16 C13.66542969 16.7425 13.14335938 17.485 12.60546875 18.25 C12.07566406 18.8275 11.54585937 19.405 11 20 C6.61381654 20 4.44824189 17.26543217 1.3125 14.5 C0.70599609 13.97535156 0.09949219 13.45070312 -0.52539062 12.91015625 C-2.02263435 11.61333098 -3.51207472 10.30750638 -5 9 C-4.21616433 5.13857796 -2.57189568 2.98671756 0 0 Z " fill="#FFEFD2" transform="translate(1531,123)"/>
<path d="M0 0 C14.78132118 -0.18451025 14.78132118 -0.18451025 21 1 C20.67 4.63 20.34 8.26 20 12 C13.4 11.67 6.8 11.34 0 11 C0 7.37 0 3.74 0 0 Z " fill="#FFEECF" transform="translate(720,180)"/>
<path d="M0 0 C4.35970831 1.34849837 8.31341438 3.04907846 12.375 5.125 C13.43460938 5.66382813 14.49421875 6.20265625 15.5859375 6.7578125 C16.38257813 7.16773438 17.17921875 7.57765625 18 8 C17.34 10.97 16.68 13.94 16 17 C11.5 18.125 11.5 18.125 8.109375 16.34765625 C7.40039062 15.98349609 6.69140625 15.61933594 5.9609375 15.24414062 C5.23132813 14.85419922 4.50171875 14.46425781 3.75 14.0625 C3.00492188 13.67642578 2.25984375 13.29035156 1.4921875 12.89257812 C-0.34414394 11.93909834 -2.17284207 10.97094323 -4 10 C-3.31620454 6.04991941 -2.21156817 3.36542982 0 0 Z " fill="#FFEED0" transform="translate(173,202)"/>
<path d="M0 0 C6.45760179 2.0589455 12.72522296 4.4370629 19 7 C18.01 10.3 17.02 13.6 16 17 C11.45218513 16.38580345 7.46685365 15.21066249 3.1875 13.5625 C1.47626953 12.91474609 1.47626953 12.91474609 -0.26953125 12.25390625 C-3 11 -3 11 -4 9 C-3.22265625 6.8359375 -3.22265625 6.8359375 -2.0625 4.375 C-1.68222656 3.55773437 -1.30195312 2.74046875 -0.91015625 1.8984375 C-0.60980469 1.27195313 -0.30945313 0.64546875 0 0 Z " fill="#FFEECE" transform="translate(801,200)"/>
<path d="M0 0 C2.09350689 3.4019487 2.17942163 6.05272412 2 10 C-1.33333333 11.33333333 -4.66666667 12.66666667 -8 14 C-8.85207031 14.39445313 -9.70414063 14.78890625 -10.58203125 15.1953125 C-13 16 -13 16 -15.203125 15.91015625 C-17 15 -17 15 -18.046875 12.93359375 C-18.27890625 12.10988281 -18.5109375 11.28617188 -18.75 10.4375 C-19.11351562 9.19806641 -19.11351562 9.19806641 -19.484375 7.93359375 C-19.65453125 7.29550781 -19.8246875 6.65742188 -20 6 C-17.41958904 4.99183944 -14.83613056 3.9932889 -12.25 3 C-11.15558594 2.57074219 -11.15558594 2.57074219 -10.0390625 2.1328125 C-9.33007812 1.86210937 -8.62109375 1.59140625 -7.890625 1.3125 C-7.24125977 1.06113281 -6.59189453 0.80976563 -5.92285156 0.55078125 C-4 0 -4 0 0 0 Z " fill="#FFEECE" transform="translate(698,183)"/>
<path d="M0 0 C3.89271432 2.167295 7.03709814 4.67413029 10.3125 7.6875 C11.19550781 8.49574219 12.07851562 9.30398437 12.98828125 10.13671875 C13.65214844 10.75160156 14.31601563 11.36648437 15 12 C13.50242805 16.90114455 12.45117938 17.43905649 8 21 C3.38 17.04 -1.24 13.08 -6 9 C-4.86634892 4.46539569 -3.35806626 3.09975347 0 0 Z " fill="#FFEFD1" transform="translate(1563,149)"/>
<path d="M0 0 C4.79132712 0.49627682 8.02090287 2.80228492 11.8125 5.5625 C12.40998047 5.98724609 13.00746094 6.41199219 13.62304688 6.84960938 C15.08740533 7.89223259 16.54445735 8.94510452 18 10 C16.68753462 13.44094186 15.33411133 16.13540882 13 19 C8.88473708 18.35826346 5.69611565 16.13013842 2.25 13.9375 C1.64800781 13.56044922 1.04601563 13.18339844 0.42578125 12.79492188 C-1.05249143 11.86806837 -2.52666089 10.93467611 -4 10 C-3.31620454 6.04991941 -2.21156817 3.36542982 0 0 Z " fill="#FFEFD2" transform="translate(1433,50)"/>
<path d="M0 0 C6 3 12 6 18 9 C16.66511872 12.59391114 15.03977277 15.75490696 13 19 C8.85967154 17.45614871 5.06446947 15.48971062 1.1875 13.375 C0.59001953 13.05015625 -0.00746094 12.7253125 -0.62304688 12.390625 C-2.08337135 11.59620849 -3.54187491 10.79844624 -5 10 C-3.66511872 6.40608886 -2.03977277 3.24509304 0 0 Z " fill="#FFEFD2" transform="translate(65,146)"/>
<path d="M0 0 C4.14032846 1.54385129 7.93553053 3.51028938 11.8125 5.625 C12.40998047 5.94984375 13.00746094 6.2746875 13.62304688 6.609375 C15.08337135 7.40379151 16.54187491 8.20155376 18 9 C16.66511872 12.59391114 15.03977277 15.75490696 13 19 C10.34508345 17.76682568 7.70223708 16.51492074 5.0625 15.25 C4.30775391 14.90195313 3.55300781 14.55390625 2.77539062 14.1953125 C2.05673828 13.84726563 1.33808594 13.49921875 0.59765625 13.140625 C-0.06741943 12.82641602 -0.73249512 12.51220703 -1.41772461 12.18847656 C-3 11 -3 11 -3.7734375 8.98632812 C-4.18742603 5.35679075 -1.89420624 2.98480983 0 0 Z " fill="#FFEFD2" transform="translate(29,127)"/>
<path d="M0 0 C2.32744035 1.87503391 3.4915962 3.59888071 4.66796875 6.34375 C3.80124577 9.70827305 2.50249518 10.44647895 -0.484375 12.30078125 C-1.73985905 12.93183066 -3.00189188 13.54998769 -4.26953125 14.15625 C-4.90310547 14.48044922 -5.53667969 14.80464844 -6.18945312 15.13867188 C-10.94356864 17.47323754 -10.94356864 17.47323754 -14.33203125 16.34375 C-17.32967124 11.5261143 -17.32967124 11.5261143 -17.3359375 8.38671875 C-15.72001661 5.0982883 -12.68316125 3.99492327 -9.51953125 2.46875 C-8.88982422 2.13617188 -8.26011719 1.80359375 -7.61132812 1.4609375 C-2.97261578 -0.83651499 -2.97261578 -0.83651499 0 0 Z " fill="#FFEFD2" transform="translate(1042.33203125,153.65625)"/>
<path d="M0 0 C4.40785758 0.87570555 7.30710183 3.31196487 10.75 6.0625 C11.35199219 6.53494141 11.95398437 7.00738281 12.57421875 7.49414062 C14.05409943 8.65690401 15.52768096 9.8276766 17 11 C15.3001734 15.17230166 13.55512687 16.44487313 10 20 C5.05 16.37 0.1 12.74 -5 9 C-3.47426795 5.18566987 -2.47253678 3.03447696 0 0 Z " fill="#FFEFD3" transform="translate(1467,73)"/>
<path d="M0 0 C0.66 3.3 1.32 6.6 2 10 C-5.19018749 11.91738333 -11.55517974 12.17114529 -19 12 C-19 8.37 -19 4.74 -19 1 C-12.62200673 0.36220067 -6.4073849 -0.12089405 0 0 Z " fill="#FFEECF" transform="translate(897,219)"/>
<path d="M0 0 C7.43440864 0.42482335 13.23555459 1.90562603 20 5 C19.48792856 8.75519057 18.7824918 11.66688525 17 15 C10.54165371 13.64583062 4.30372038 11.95326547 -2 10 C-1.34 6.7 -0.68 3.4 0 0 Z " fill="#FFEFD2" transform="translate(1395,34)"/>
<path d="M0 0 C3 6.625 3 6.625 3 10 C0.75157909 10.98293267 -1.49859547 11.96144466 -3.75 12.9375 C-4.38421875 13.21529297 -5.0184375 13.49308594 -5.671875 13.77929688 C-8.74367158 15.10720894 -11.71000026 16.34366167 -15 17 C-19 10.375 -19 10.375 -19 7 C-16.58757287 5.82379175 -14.17072309 4.6589044 -11.75 3.5 C-11.06808594 3.16613281 -10.38617187 2.83226562 -9.68359375 2.48828125 C-6.1479008 0.80625256 -3.98070714 0 0 0 Z " fill="#FFEFD1" transform="translate(969,183)"/>
<path d="M0 0 C1.2890625 1.53125 1.2890625 1.53125 2.625 3.5 C3.07101562 4.1496875 3.51703125 4.799375 3.9765625 5.46875 C4.31429688 5.9740625 4.65203125 6.479375 5 7 C3.47605205 11.20532472 0.3847135 13.25004166 -3.125 15.75 C-3.68832031 16.16121094 -4.25164062 16.57242188 -4.83203125 16.99609375 C-6.21601634 18.00476085 -7.60730541 19.00339286 -9 20 C-12.295419 18.45804411 -14.18650837 17.24519555 -16 14 C-15.55903198 10.47050772 -14.94634566 9.95182059 -12.12890625 7.421875 C-10.94808908 6.52069018 -9.75892219 5.63036199 -8.5625 4.75 C-7.96373047 4.29109375 -7.36496094 3.8321875 -6.74804688 3.359375 C-2.28387742 0 -2.28387742 0 0 0 Z " fill="#FFEFD3" transform="translate(1075,130)"/>
<path d="M0 0 C7.26 0 14.52 0 22 0 C22 7 22 7 20 11 C13.4 10.67 6.8 10.34 0 10 C0 6.7 0 3.4 0 0 Z " fill="#FFEFD3" transform="translate(411,156)"/>
<path d="M0 0 C0.99 3.3 1.98 6.6 3 10 C-3.33717138 12.67767805 -9.24866125 14.69328927 -16 16 C-19 9.375 -19 9.375 -19 6 C-16.39802798 4.99394407 -13.79370638 3.99497475 -11.1875 3 C-10.08051758 2.57074219 -10.08051758 2.57074219 -8.95117188 2.1328125 C-8.23896484 1.86210937 -7.52675781 1.59140625 -6.79296875 1.3125 C-6.1383667 1.06113281 -5.48376465 0.80976563 -4.80932617 0.55078125 C-3 0 -3 0 0 0 Z " fill="#FFEFD1" transform="translate(1007,169)"/>
<path d="M0 0 C0.74507812 0.00451172 1.49015625 0.00902344 2.2578125 0.01367188 C4.0885764 0.02540754 5.91929873 0.0433415 7.75 0.0625 C7.75 3.6925 7.75 7.3225 7.75 11.0625 C-1.655 11.5575 -1.655 11.5575 -11.25 12.0625 C-11.58 8.4325 -11.91 4.8025 -12.25 1.0625 C-8.06269376 0.01567344 -4.27143069 -0.04905353 0 0 Z " fill="#FFEFD2" transform="translate(1329.25,19.9375)"/>
<path d="M0 0 C6.48472993 0.73690113 12.69239743 2.35318751 19 4 C18.85892253 5.45880109 18.71197585 6.91703551 18.5625 8.375 C18.48128906 9.18710937 18.40007812 9.99921875 18.31640625 10.8359375 C18 13 18 13 17 15 C10.9490696 13.83445193 4.96533774 12.54656904 -1 11 C-0.67 7.37 -0.34 3.74 0 0 Z " fill="#FFEFD3" transform="translate(1357,24)"/>
<path d="M0 0 C3.34373475 0.55728913 6.03312999 1.35173889 9 3 C8.43454163 6.95820859 7.19097652 9.6659053 5 13 C0.25 12.125 0.25 12.125 -2 11 C-2.25 3.375 -2.25 3.375 0 0 Z " fill="#FFEFD2" transform="translate(2,113)"/>
</svg>
